<svg width="18" height="18" viewBox="0 0 18 18" fill="none" xmlns="http://www.w3.org/2000/svg">
<path d="M10.0501 1.39961C10.0501 1.12113 9.93947 0.85406 9.74256 0.657147C9.54565 0.460234 9.27857 0.349609 9.0001 0.349609C8.72162 0.349609 8.45455 0.460234 8.25764 0.657147C8.06072 0.85406 7.9501 1.12113 7.9501 1.39961V7.94961H1.4001C1.12162 7.94961 0.854549 8.06023 0.657636 8.25715C0.460723 8.45406 0.350098 8.72113 0.350098 8.99961C0.350098 9.27809 0.460723 9.54516 0.657636 9.74207C0.854549 9.93898 1.12162 10.0496 1.4001 10.0496H7.9501V16.5996C7.9501 16.8781 8.06072 17.1452 8.25763 17.3421C8.45455 17.539 8.72162 17.6496 9.0001 17.6496C9.27857 17.6496 9.54565 17.539 9.74256 17.3421C9.93947 17.1452 10.0501 16.8781 10.0501 16.5996V10.0496H16.6001C16.8786 10.0496 17.1456 9.93898 17.3426 9.74207C17.5395 9.54516 17.6501 9.27809 17.6501 8.99961C17.6501 8.72113 17.5395 8.45406 17.3426 8.25715C17.1456 8.06023 16.8786 7.94961 16.6001 7.94961H10.0501V1.39961Z" fill="#E31E24" stroke="#E31E24" stroke-width="0.5"/>
</svg>
