<svg width="24" height="24" viewBox="0 0 24 24" fill="none" xmlns="http://www.w3.org/2000/svg">
<circle cx="12" cy="12" r="12" fill="#E31E24"/>
<path d="M7.68661 8.77052L10.9159 11.9998L7.68661 15.2291L7.61593 15.2998L7.68659 15.3705L8.62926 16.3138L8.69997 16.3846L8.77071 16.3138L11.9993 13.0846L15.2286 16.3139L15.2993 16.3845L15.37 16.3139L16.3133 15.3712L16.3841 15.3005L16.3134 15.2298L13.0841 12.0005L16.3134 8.77119L16.3841 8.70048L16.3134 8.62977L15.3707 7.6871L15.3 7.61639L15.2293 7.6871L12 10.9164L8.77069 7.68776L8.70003 7.61711L8.62933 7.68772L7.68666 8.62905L7.61585 8.69976L7.68661 8.77052Z" fill="white" stroke="white" stroke-width="0.2"/>
</svg>
